<svg width="25" height="23" viewBox="0 0 25 23" fill="none" xmlns="http://www.w3.org/2000/svg">
<g clip-path="url(#clip0_2986_11176)">
<path d="M8.4999 22.4002C9.38356 22.4002 10.0999 21.6839 10.0999 20.8002C10.0999 19.9165 9.38356 19.2002 8.4999 19.2002C7.61625 19.2002 6.8999 19.9165 6.8999 20.8002C6.8999 21.6839 7.61625 22.4002 8.4999 22.4002Z" fill="#252B42"/>
<path d="M19.7001 22.4002C20.5838 22.4002 21.3001 21.6839 21.3001 20.8002C21.3001 19.9165 20.5838 19.2002 19.7001 19.2002C18.8164 19.2002 18.1001 19.9165 18.1001 20.8002C18.1001 21.6839 18.8164 22.4002 19.7001 22.4002Z" fill="#252B42"/>
<path d="M22.9 4.00016H5.156L4.5 0.640163C4.4626 0.456742 4.36206 0.292245 4.21589 0.175305C4.06971 0.0583653 3.88716 -0.00361159 3.7 0.000162751H0.5V1.60016H3.044L6.1 16.9602C6.1374 17.1436 6.23794 17.3081 6.38411 17.425C6.53029 17.542 6.71284 17.6039 6.9 17.6002H21.3V16.0002H7.556L6.9 12.8002H21.3C21.4849 12.8047 21.6657 12.745 21.8116 12.6312C21.9574 12.5174 22.0594 12.3566 22.1 12.1762L23.7 4.97616C23.7268 4.85746 23.7262 4.73421 23.6982 4.61579C23.6702 4.49737 23.6155 4.38689 23.5384 4.29278C23.4612 4.19867 23.3636 4.12339 23.253 4.07268C23.1424 4.02198 23.0217 3.99717 22.9 4.00016ZM20.66 11.2002H6.596L5.476 5.60016H21.9L20.66 11.2002Z" fill="#252B42"/>
</g>
<defs>
<clipPath id="clip0_2986_11176">
<rect width="24" height="22.4002" fill="white" transform="translate(0.5)"/>
</clipPath>
</defs>
</svg>
