<svg width="16" height="15" viewBox="0 0 16 15" fill="none" xmlns="http://www.w3.org/2000/svg">
<path d="M0.5 0.5C0.5 0.367392 0.552678 0.240215 0.646447 0.146447C0.740215 0.0526784 0.867392 0 1 0H2.5C2.61153 3.08115e-05 2.71985 0.0373507 2.80773 0.106025C2.89561 0.174699 2.95801 0.270784 2.985 0.379L3.39 2H15C15.0734 2.00007 15.1459 2.0163 15.2124 2.04755C15.2788 2.0788 15.3375 2.12429 15.3844 2.1808C15.4313 2.23731 15.4651 2.30345 15.4835 2.37452C15.502 2.44558 15.5045 2.51984 15.491 2.592L13.991 10.592C13.9696 10.7066 13.9087 10.8101 13.8191 10.8846C13.7294 10.9591 13.6166 10.9999 13.5 11H4.5C4.38343 10.9999 4.27057 10.9591 4.18091 10.8846C4.09126 10.8101 4.03045 10.7066 4.009 10.592L2.51 2.607L2.11 1H1C0.867392 1 0.740215 0.947322 0.646447 0.853553C0.552678 0.759785 0.5 0.632608 0.5 0.5ZM3.602 3L4.915 10H13.085L14.398 3H3.602ZM5.5 11C4.96957 11 4.46086 11.2107 4.08579 11.5858C3.71071 11.9609 3.5 12.4696 3.5 13C3.5 13.5304 3.71071 14.0391 4.08579 14.4142C4.46086 14.7893 4.96957 15 5.5 15C6.03043 15 6.53914 14.7893 6.91421 14.4142C7.28929 14.0391 7.5 13.5304 7.5 13C7.5 12.4696 7.28929 11.9609 6.91421 11.5858C6.53914 11.2107 6.03043 11 5.5 11ZM12.5 11C11.9696 11 11.4609 11.2107 11.0858 11.5858C10.7107 11.9609 10.5 12.4696 10.5 13C10.5 13.5304 10.7107 14.0391 11.0858 14.4142C11.4609 14.7893 11.9696 15 12.5 15C13.0304 15 13.5391 14.7893 13.9142 14.4142C14.2893 14.0391 14.5 13.5304 14.5 13C14.5 12.4696 14.2893 11.9609 13.9142 11.5858C13.5391 11.2107 13.0304 11 12.5 11ZM5.5 12C5.76522 12 6.01957 12.1054 6.20711 12.2929C6.39464 12.4804 6.5 12.7348 6.5 13C6.5 13.2652 6.39464 13.5196 6.20711 13.7071C6.01957 13.8946 5.76522 14 5.5 14C5.23478 14 4.98043 13.8946 4.79289 13.7071C4.60536 13.5196 4.5 13.2652 4.5 13C4.5 12.7348 4.60536 12.4804 4.79289 12.2929C4.98043 12.1054 5.23478 12 5.5 12ZM12.5 12C12.7652 12 13.0196 12.1054 13.2071 12.2929C13.3946 12.4804 13.5 12.7348 13.5 13C13.5 13.2652 13.3946 13.5196 13.2071 13.7071C13.0196 13.8946 12.7652 14 12.5 14C12.2348 14 11.9804 13.8946 11.7929 13.7071C11.6054 13.5196 11.5 13.2652 11.5 13C11.5 12.7348 11.6054 12.4804 11.7929 12.2929C11.9804 12.1054 12.2348 12 12.5 12Z" fill="#23A6F0"/>
</svg>
