<svg width="24" height="24" viewBox="0 0 24 24" fill="none" xmlns="http://www.w3.org/2000/svg">
<g clip-path="url(#clip0_2986_10901)">
<path d="M12.0016 5.8467C8.59659 5.8467 5.84859 8.5947 5.84859 11.9997C5.84859 15.4047 8.59659 18.1527 12.0016 18.1527C15.4066 18.1527 18.1546 15.4047 18.1546 11.9997C18.1546 8.5947 15.4066 5.8467 12.0016 5.8467ZM12.0016 15.9987C9.79959 15.9987 8.00259 14.2017 8.00259 11.9997C8.00259 9.7977 9.79959 8.0007 12.0016 8.0007C14.2036 8.0007 16.0006 9.7977 16.0006 11.9997C16.0006 14.2017 14.2036 15.9987 12.0016 15.9987ZM18.4066 4.1607C17.6116 4.1607 16.9696 4.8027 16.9696 5.5977C16.9696 6.3927 17.6116 7.0347 18.4066 7.0347C19.2016 7.0347 19.8436 6.3957 19.8436 5.5977C19.8438 5.40893 19.8068 5.22196 19.7347 5.04751C19.6625 4.87306 19.5567 4.71455 19.4232 4.58106C19.2897 4.44758 19.1312 4.34174 18.9568 4.26961C18.7823 4.19747 18.5954 4.16047 18.4066 4.1607ZM23.9956 11.9997C23.9956 10.3437 24.0106 8.7027 23.9176 7.0497C23.8246 5.1297 23.3866 3.4257 21.9826 2.0217C20.5756 0.614705 18.8746 0.179705 16.9546 0.0867048C15.2986 -0.00629521 13.6576 0.00870483 12.0046 0.00870483C10.3486 0.00870483 8.70759 -0.00629521 7.05459 0.0867048C5.13459 0.179705 3.43059 0.617705 2.02659 2.0217C0.619588 3.4287 0.184588 5.1297 0.0915876 7.0497C-0.0014124 8.7057 0.0135876 10.3467 0.0135876 11.9997C0.0135876 13.6527 -0.0014124 15.2967 0.0915876 16.9497C0.184588 18.8697 0.622588 20.5737 2.02659 21.9777C3.43359 23.3847 5.13459 23.8197 7.05459 23.9127C8.71059 24.0057 10.3516 23.9907 12.0046 23.9907C13.6606 23.9907 15.3016 24.0057 16.9546 23.9127C18.8746 23.8197 20.5786 23.3817 21.9826 21.9777C23.3896 20.5707 23.8246 18.8697 23.9176 16.9497C24.0136 15.2967 23.9956 13.6557 23.9956 11.9997ZM21.3556 19.0737C21.1366 19.6197 20.8726 20.0277 20.4496 20.4477C20.0266 20.8707 19.6216 21.1347 19.0756 21.3537C17.4976 21.9807 13.7506 21.8397 12.0016 21.8397C10.2526 21.8397 6.50259 21.9807 4.92459 21.3567C4.37859 21.1377 3.97059 20.8737 3.55059 20.4507C3.12759 20.0277 2.86359 19.6227 2.64459 19.0767C2.02059 17.4957 2.16159 13.7487 2.16159 11.9997C2.16159 10.2507 2.02059 6.5007 2.64459 4.9227C2.86359 4.3767 3.12759 3.9687 3.55059 3.5487C3.97359 3.1287 4.37859 2.8617 4.92459 2.6427C6.50259 2.0187 10.2526 2.1597 12.0016 2.1597C13.7506 2.1597 17.5006 2.0187 19.0786 2.6427C19.6246 2.8617 20.0326 3.1257 20.4526 3.5487C20.8756 3.9717 21.1396 4.3767 21.3586 4.9227C21.9826 6.5007 21.8416 10.2507 21.8416 11.9997C21.8416 13.7487 21.9826 17.4957 21.3556 19.0737Z" fill="#E61F5A"/>
</g>
<defs>
<clipPath id="clip0_2986_10901">
<rect width="24" height="24" fill="white"/>
</clipPath>
</defs>
</svg>
