<svg width="25" height="24" viewBox="0 0 25 24" fill="none" xmlns="http://www.w3.org/2000/svg">
<g clip-path="url(#clip0_2986_11174)">
<path fill-rule="evenodd" clip-rule="evenodd" d="M17.6901 15.478L24.1458 21.9337C24.3727 22.1608 24.5001 22.4687 24.5 22.7897C24.4999 23.1107 24.3723 23.4185 24.1452 23.6454C23.9181 23.8723 23.6102 23.9998 23.2892 23.9996C22.9682 23.9995 22.6604 23.8719 22.4335 23.6448L15.9778 17.1891C14.0479 18.6839 11.6211 19.3873 9.19104 19.1563C6.76097 18.9252 4.51018 17.7771 2.89656 15.9455C1.28294 14.1139 0.427685 11.7364 0.504795 9.29656C0.581905 6.85675 1.58558 4.53796 3.31165 2.81189C5.03771 1.08583 7.35651 0.0821496 9.79632 0.00503951C12.2361 -0.0720706 14.6137 0.78318 16.4453 2.3968C18.2769 4.01043 19.425 6.26122 19.656 8.69129C19.887 11.1214 19.1836 13.5482 17.6889 15.478H17.6901ZM10.1004 16.7992C12.0099 16.7992 13.8412 16.0406 15.1914 14.6904C16.5416 13.3402 17.3001 11.509 17.3001 9.59949C17.3001 7.69002 16.5416 5.85876 15.1914 4.50856C13.8412 3.15836 12.0099 2.39983 10.1004 2.39983C8.19098 2.39983 6.35971 3.15836 5.00951 4.50856C3.65932 5.85876 2.90078 7.69002 2.90078 9.59949C2.90078 11.509 3.65932 13.3402 5.00951 14.6904C6.35971 16.0406 8.19098 16.7992 10.1004 16.7992Z" fill="#252B42"/>
</g>
<defs>
<clipPath id="clip0_2986_11174">
<rect width="24" height="23.9997" fill="white" transform="translate(0.5)"/>
</clipPath>
</defs>
</svg>
