<svg width="24" height="18" viewBox="0 0 24 18" fill="none" xmlns="http://www.w3.org/2000/svg">
<g clip-path="url(#clip0_2986_10905)">
<path d="M23.4699 2.93276C23.3335 2.3998 23.0663 1.91386 22.6951 1.52359C22.324 1.13331 21.8619 0.852389 21.355 0.708933C19.4884 0.177735 11.9879 0.177734 11.9879 0.177734C11.9879 0.177734 4.48729 0.177735 2.62071 0.708933C2.11385 0.852389 1.65172 1.13331 1.28057 1.52359C0.90941 1.91386 0.642248 2.3998 0.50582 2.93276C0.157288 4.93445 -0.0118455 6.96611 0.000644257 9.00103C-0.0118455 11.0359 0.157288 13.0676 0.50582 15.0693C0.642248 15.6023 0.90941 16.0882 1.28057 16.4785C1.65172 16.8687 2.11385 17.1497 2.62071 17.2931C4.48729 17.8243 11.9879 17.8243 11.9879 17.8243C11.9879 17.8243 19.4884 17.8243 21.355 17.2931C21.8619 17.1497 22.324 16.8687 22.6951 16.4785C23.0663 16.0882 23.3335 15.6023 23.4699 15.0693C23.8184 13.0676 23.9876 11.0359 23.9751 9.00103C23.9876 6.96611 23.8184 4.93445 23.4699 2.93276ZM9.59041 12.7824V5.21962L15.8152 9.00103L9.59041 12.7824Z" fill="#E42F08"/>
</g>
<defs>
<clipPath id="clip0_2986_10905">
<rect width="24" height="17.6842" fill="white" transform="translate(0 0.158203)"/>
</clipPath>
</defs>
</svg>
